<?xml version="1.0" encoding="utf-8"?>
<!-- Generator: Adobe Illustrator 16.0.4, SVG Export Plug-In . SVG Version: 6.00 Build 0)  -->
<!DOCTYPE svg PUBLIC "-//W3C//DTD SVG 1.1//EN" "http://www.w3.org/Graphics/SVG/1.1/DTD/svg11.dtd">
<svg version="1.1" id="Layer_1" xmlns="http://www.w3.org/2000/svg" xmlns:xlink="http://www.w3.org/1999/xlink" x="0px" y="0px"
	 width="1000px" height="1000px" viewBox="0 0 1000 1000" enable-background="new 0 0 1000 1000" xml:space="preserve">
<g>
	<g transform="translate(0.000000,5118.000000) scale(0.100000,-0.100000)">
		<path d="M7396.494,48129.879c-221.016-8.32-435.742-81.23-610.547-207.285c-46.23-33.262-88.77-70.469-140.059-122.363
			c-30.996-31.25-47.539-49.121-107.227-115.371c-78.867-87.637-109.16-119.043-149.336-154.844
			c-107.148-95.605-208.34-142.422-336.045-155.391c-53.75-5.508-129.736-4.453-325.635,4.297
			c-54.883,2.441-96.191,4.199-147.5,6.211c-38.418,1.504-167.363,2.012-201.758,0.879c-78.613-2.715-122.812-6.562-207.012-18.027
			c-253.418-34.668-477.246-78.789-694.941-136.992c-18.301-4.902-57.695-15.586-87.539-23.73
			c-182.07-49.902-208.066-56.816-279.414-74.668c-95.146-23.809-180.752-42.285-247.636-53.398
			c-236.689-39.395-551.289-35.02-936.611,13.145c-185.234,23.105-395.312,57.5-606.182,99.336
			c-266.719,52.871-554.531,123.164-849.521,207.559c-200.713,57.324-272.236,80.352-488.008,156.953
			c-104.863,37.207-149.678,52.773-157.998,54.785c-25.117,6.035-45.518,0.625-52.695-13.926c-2.012-4.102-2.441-6.133-2.441-11.543
			c0-9.102,3.232-15.586,12.422-25.039c13.477-13.828,18.379-17.246,81.68-56.816c105.039-65.645,248.154-148.887,423.398-246.23
			c523.271-290.781,1101.094-550.234,1486.943-667.637c112.305-34.121,439.512-118.867,703.857-182.148
			c114.941-27.578,144.873-34.219,213.154-47.617c137.08-26.777,169.287-33.516,214.023-44.648
			c166.054-41.23,275.302-98.652,368.076-193.086c193.105-196.777,280.82-404.258,258.232-610.547
			c-2.275-20.41-4.463-34.414-9.629-60.762c-2.354-11.992-8.057-42.188-12.686-66.973c-12.607-67.91-19.434-97.949-29.854-132.422
			c-18.291-60.488-38.516-110.039-109.326-267.156c-66.797-148.293-91.738-214.113-125.264-330.891
			c-16.455-57.324-20.928-81.387-25.381-137.422c-3.33-41.934-2.109-61.094,6.289-98.047
			c22.764-100.137,100.059-249.453,176.826-341.367c22.236-26.621,70.107-72.227,112.393-106.895
			c115.898-95.234,244.57-167.012,414.307-231.074c11.904-4.473,23.018-9.199,24.6-10.43c7.09-5.43,67.051-29.668,164.648-66.699
			c26.426-9.98,29.229-10.859,33.516-10.586c8.145,0.684,12.959,6.211,12.783,14.707c-0.166,5.938-3.76,22.227-8.408,37.188
			c-9.092,29.688-26.68,66.895-46.299,97.871c-3.232,5.176-5.859,9.375-5.684,9.375c0.693,0,23.545-9.551,38.604-16.211
			c36.758-16.094,73.438-30.273,107.656-41.562c12.695-4.219,17.949-5.605,22.324-5.703c3.154-0.078,7.969-0.781,10.771-1.562
			c8.408-2.363,14.873,0.078,18.027,6.738c2.451,4.98,2.363,7.441-1.221,19.609c-10.762,37.539-35.02,81.934-71.865,131.738
			c-3.066,4.199-5.518,7.617-5.342,7.617s5.869-2.285,12.52-5.176c22.754-9.531,58.818-22.578,93.398-33.691
			c49.463-15.938,51.816-16.465,57.51-12.52c5.518,3.77,6.562,6.035,6.475,14.434c0,9.102-2.012,19.258-6.133,31.699
			c-4.199,12.598-9.277,23.008-18.105,37.012c-8.672,13.828-13.838,20.762-23.633,31.953
			c-14.355,16.465-53.926,50.078-58.828,50.078c-0.527,0-7.178,3.77-14.883,8.32c-27.5,16.445-59.697,31.68-122.197,57.754
			c-62.666,26.27-66.445,28.105-115.029,55.43c-126.133,70.898-177.158,103.281-223.203,141.621
			c-13.398,11.211-37.207,34.316-46.836,45.43c-27.051,31.426-47.705,70.82-54.18,103.301
			c-7.969,39.648-2.012,89.805,19.609,164.551c11.289,39.219,19.609,61.543,32.559,87.461
			c32.656,65.215,82.715,124.629,160.889,190.898c21.006,17.773,69.062,55.508,90.244,70.742l4.473,3.223l-2.969-9.883
			c-8.418-27.48-15.244-57.254-25.137-110.039c-14.883-78.516-17.852-101.699-18.633-143.125
			c-0.703-37.09,1.045-56.367,7.256-81.387c20.654-82.91,91.904-204.492,174.023-297.188c13.135-14.785,44.551-46.211,63.545-63.457
			c107.227-97.598,222.422-166.934,383.574-230.742c18.203-7.188,25.215-10.41,26.523-11.992
			c2.979-3.867,28.809-14.785,88.32-37.383c66.621-25.215,83.242-31.074,88.145-31.074c9.111,0,14.531,6.387,13.672,16.191
			c-1.152,11.992-8.32,36.855-16.387,56.387c-4.453,10.84-15.137,32.383-24.941,50.332c-3.145,5.762-5.508,10.586-5.332,10.762
			c0.176,0.254,1.133,0,2.012-0.449c0.869-0.43,11.816-4.629,24.336-9.355c12.51-4.727,30.273-11.738,39.385-15.586
			c22.852-9.629,44.033-17.676,64.688-24.688c14.355-4.805,18.037-5.781,20.918-5.332c10.156,1.66,16.729,10.762,14.619,20.215
			c-1.484,6.484-6.914,22.852-10.156,30.547c-1.66,3.945-5.078,12.441-7.52,18.926c-9.902,26.426-22.236,47.07-40.449,67.734
			c-3.32,3.77-5.508,6.66-4.805,6.387c5.947-2.344,36.582-12.148,52.871-16.797c24.854-7.188,77.734-20.566,81.309-20.566
			c3.857,0,9.902,3.223,11.816,6.387c2.637,4.375,2.891,7.441,1.406,15.938c-4.727,27.48-19.609,52.324-47.354,79.219
			c-17.588,17.07-44.473,36.934-53.486,39.629c-2.266,0.703-9.102,4.395-15.137,8.242c-25.82,16.367-47.891,28.711-105.928,59.355
			c-61.357,32.383-64.688,34.395-124.297,74.316c-66.338,44.551-97.334,66.699-126.309,90.059
			c-36.064,29.16-64.863,58.574-83.252,84.922c-12.168,17.5-29.316,50.234-34.473,65.82c-12.871,38.867-9.375,82.539,13.027,160.625
			c14.004,48.672,30.039,83.867,56.377,123.418c22.49,33.977,44.814,60.312,81.494,96.289
			c38.779,38.086,68.721,62.598,159.668,130.781c79.561,59.699,109.238,82.715,141.631,110.195
			c124.033,105.312,196.689,205.625,237.471,328.008c18.027,54.18,25.742,97.148,29.688,166.309
			c1.045,18.027,1.309,71.172,0.352,83.594l-0.527,8.047l13.203,8.047c13.574,8.32,52.529,33.887,63.818,42.031l6.396,4.551
			l5.859-5.176c56.719-49.883,141.641-92.07,263.047-130.684c25.039-7.969,45.957-13.223,80.703-20.488
			c45.254-9.355,57.07-12.773,75.273-21.875c22.324-11.113,33.789-22.148,54.277-52.07c13.906-20.41,30.195-38.613,48.398-54.199
			c12.617-10.684,17.246-14.277,42.637-32.734c24.863-18.027,39.824-30.547,53.047-44.121c22.5-23.203,38.867-46.992,58.73-85.605
			c10.254-19.785,11.738-21.445,19.258-21.445c5.254,0,9.727,1.914,12.09,5.254c2.441,3.398,17.07,77.559,20.117,101.543
			c0.547,4.102,1.152,8.926,1.406,10.762l0.527,3.418l2.891-4.297c1.582-2.363,7.695-12.344,13.574-22.051
			c15.84-26.445,28.359-51.211,30.195-59.707c0.781-3.77,4.199-8.32,7.441-9.98c5.684-2.988,14.961-0.879,18.477,4.023
			c3.047,4.297,11.465,51.562,13.203,74.062c0.957,12.246,0.879,15.312-1.309,39.297c-1.23,14.355-2.188,26.172-2.109,26.25
			c0.098,0.098,4.824-4.805,10.508-10.84c11.816-12.598,14.102-16.191,28.809-44.297c5.859-11.113,11.465-21.191,12.422-22.227
			c2.793-3.164,6.133-4.57,10.762-4.57c5.527,0,9.805,2.383,12.266,6.66c2.109,3.77,5.332,19.98,7.871,38.711
			c1.836,14.082,2.09,54.082,0.449,67.559c-11.992,96.289-70.391,176.914-180.938,249.922
			c-32.656,21.523-60.312,37.383-103.301,59.082c-43.574,21.973-68.359,33.262-154.492,70.195
			c-71.074,30.547-92.344,41.055-122.363,60.742c-22.07,14.453-41.328,29.688-58.75,46.406l-9.629,9.199l14.18,13.73
			c7.793,7.539,29.16,28.535,47.461,46.66l33.262,33.008l6.992-9.297c9.023-11.895,33.789-36.836,47.266-47.617
			c41.152-32.91,87.793-56.543,159.238-80.879c34.297-11.641,90.664-29.219,107.754-33.594c9.18-2.285,27.48-6.406,40.703-9.121
			c40.879-8.398,57.852-13.379,73.789-21.719c16.27-8.477,30.996-22.48,44.277-42.168c20.938-30.996,41.934-52.363,75.293-76.699
			c39.57-28.965,47.617-35.352,62.832-50.84c21.465-21.797,38.184-45.957,55.605-80.371c4.199-8.398,8.32-16.016,9.18-16.895
			c5.703-6.289,17.949-5.41,22.5,1.484c2.266,3.516,16.016,74.844,19.512,101.289l0.703,5.078l8.496-13.828
			c16.367-26.523,29.336-50.957,32.656-61.445c3.594-11.309,6.387-14.199,14.355-14.707c3.574-0.176,5.684,0.176,7.949,1.406
			c6.406,3.477,6.66,4.375,13.75,45.684c4.121,24.238,4.727,41.66,2.109,68.184c-0.977,10.332-1.758,18.906-1.582,18.984
			c0.098,0.176,4.297-4.102,9.199-9.434c9.883-10.684,13.125-15.762,27.227-42.715c4.902-9.375,10.059-18.145,11.465-19.453
			c6.738-6.289,18.203-4.277,22.402,3.867c1.738,3.32,4.98,20.293,7.012,36.152c2.188,16.797,2.188,50.762,0.078,66.074
			c-4.297,30.996-11.289,53.75-25.117,81.855c-26.699,54.434-73.086,102.852-142.695,149.16
			c-59.609,39.648-114.492,67.305-245.527,123.496c-67.754,29.062-86.133,38.262-117.305,59.082
			c-35.449,23.652-65.117,51.562-90.234,84.922c-10.254,13.574-26.621,39.043-26.621,41.406c0,0.605,4.648,6.914,10.332,14.004
			c12.695,15.84,30.469,38.867,44.824,57.949c5.957,7.969,13.828,18.203,17.52,22.754c31.055,38.613,73.516,95.508,86.816,116.426
			c3.77,5.859,42.637,45.078,60.215,60.742c26.895,23.906,52.715,41.582,83.945,57.344c87.91,44.453,183.301,52.441,313.809,26.27
			c51.836-10.352,96.738-22.344,216.484-57.598c29.336-8.672,60.742-17.695,69.863-20.234
			c114.062-30.898,261.289-56.543,400.898-69.668c37.91-3.594,63.555-2.461,96.191,4.121c42.031,8.477,67.93,22.754,77.48,42.793
			c3.066,6.387,3.145,6.816,3.145,17.07c0,9.355-0.254,11.113-2.266,16.016c-5.078,11.914-13.75,23.379-24.082,31.68
			c-10.332,8.32-9.18,5.527-12.949,31.797c-2.891,19.941-3.164,23.711-2.188,24.59c4.551,4.199,171.914,136.465,173.496,137.07
			c1.035,0.449,5.254,1.66,9.355,2.617c65.215,16.035,113.711,54.023,141.465,110.742c12.871,26.445,20.391,54.434,23.184,87.109
			c1.23,14.609,0.527,51.641-1.289,65.469c-12.617,94.355-60.332,190.82-148.828,301.289
			c-52.344,65.215-124.121,139.082-205.352,211.035c-57.148,50.703-145.312,121.934-193.457,156.523
			c-102.852,73.789-218.125,127.793-343.574,160.977C7620.4,48121.832,7508.017,48134.078,7396.494,48129.879z M7479.208,48101.07
			c202.031-7.852,390.312-68.008,549.277-175.41c56.465-38.242,156.602-118.691,231.543-186.094
			c52.168-47.012,108.535-103.477,149.062-149.434c108.984-123.594,170.957-240.449,180.059-339.453
			c1.152-12.598,1.152-39.648-0.078-51.738c-6.133-61.875-33.008-110.898-77.383-141.191
			c-28.984-19.785-62.422-31.074-108.105-36.504c-16.113-1.836-61.113-2.617-81.152-1.309
			c-159.746,10.508-378.945,80.625-677.773,217.012c-59.434,27.129-109.082,50.586-212.266,100.391
			c-93.75,45.254-136.992,65.215-144.355,66.621c-11.992,2.188-21.172-12.344-14.258-22.676
			c1.562-2.363,18.906-21.875,39.902-45.254c167.637-185.762,326.777-309.18,500.781-388.496
			c70.117-31.934,150.917-59.863,288.867-100.039c73.789-21.523,105.586-32.559,133.926-46.738
			c15.762-7.891,27.148-15.41,34.316-22.773c7.441-7.52,11.387-14.18,11.914-19.961c0.254-3.926,0-4.98-2.285-8.125
			c-7.344-10.078-27.48-18.652-58.379-24.785c-31.074-6.211-49.199-6.641-94.98-2.266
			c-115.977,11.113-247.109,33.086-350.136,58.652c-29.062,7.266-47.188,12.246-108.105,30.195
			c-111.172,32.734-147.5,42.539-195.117,52.949c-125.859,27.5-222.852,26.094-307.773-4.551
			c-31.953-11.465-58.73-25.117-89.277-45.332c-24.766-16.465-42.012-30.82-71.602-59.531c-8.848-8.574-16.113-15.41-16.289-15.234
			c-6.641,8.848-9.453,12.09-15.488,17.852c-19.961,19.082-49.453,31.172-84.746,34.59c-18.809,1.836-53.652,0.801-87.52-2.715
			c-118.086-11.992-266.367-57.07-438.73-133.398c-12.598-5.605-23.008-10.078-23.203-9.902c-0.781,0.879-4.277,54.453-5.41,84.473
			c-0.605,14.98-0.879,17.07-2.461,19.258c-2.188,3.066-8.574,6.387-12.168,6.387c-4.707,0-10.234-3.496-12.52-7.871
			c-2.012-3.848-2.09-4.199-1.562-22.324c2.188-73.438,17.246-218.73,31.602-305.488c5.859-35.02,9.004-47.441,22.48-88.848
			c47.109-144.355,112.754-231.797,220.059-293.242c21.895-12.52,39.844-20.918,96.641-45.332
			c87.461-37.559,112.832-49.121,156.699-71.172c82.012-41.328,137.344-78.34,181.543-121.582
			c29.336-28.711,47.52-52.695,62.754-82.559c13.047-25.547,20.312-48.223,24.512-76.055c1.934-13.32,3.066-38.965,2.188-49.121
			l-0.684-6.816l-4.375,7.441c-5.176,8.652-8.672,12.949-22.949,28.262c-5.781,6.133-15.938,17.773-22.578,25.82
			c-10.332,12.441-12.695,14.805-16.016,16.035c-7.09,2.695-14.707-0.273-17.949-7.09c-1.836-3.672-1.934-4.648-1.309-19.004
			c0.781-22.324,1.934-39.824,4.121-61.895c1.66-17.578,1.738-20.996,0.859-31.934c-0.605-6.758-1.387-13.398-1.738-14.902
			l-0.801-2.598l-2.012,3.926c-3.848,7.715-20.488,34.746-30.293,49.453c-12.07,18.203-20.215,28.555-24.844,31.602
			c-7.441,4.902-17.773,3.145-22.07-3.848c-1.738-2.812-2.012-4.727-2.539-19.355c-0.957-23.73-3.574-44.453-9.629-76.152
			l-2.793-14.336l-2.715,4.629c-6.133,10.488-21.973,33.418-29.141,42.441c-9.453,11.836-30.215,33.262-41.406,42.637
			c-4.551,3.848-14.805,11.816-22.676,17.676c-39.648,29.336-49.453,36.855-58.301,44.922c-15.586,14.18-26.953,27.559-41.484,48.75
			c-17.344,25.293-29.863,37.988-50.156,50.605c-21.113,13.125-41.836,19.785-95.957,30.879
			c-40.605,8.32-62.305,14.355-105.195,28.887c-115.293,39.316-192.676,82.109-244.756,135.332
			c-37.9,38.965-65.83,85.43-151.787,252.891c-62.148,120.977-93.916,179.277-126.748,231.953
			c-21.279,34.238-46.924,70.391-52.08,73.535c-3.682,2.285-10.508,2.285-14.619,0.098c-5.596-2.988-8.584-11.562-6.221-17.871
			c0.449-1.23,5-7.695,9.98-14.434c10.332-14.004,29.512-42.285,29.512-43.672c0-0.527-7.188-5.176-15.938-10.332
			c-142.148-83.945-325.801-203.867-473.301-309.082l-30.898-22.051l-7.441,10.137c-15.664,21.445-16.816,22.5-24.424,21.875
			c-3.76-0.332-5.342-0.957-7.354-2.891c-3.145-3.047-4.814-7.949-4.023-11.973c0.439-2.539,25.205-38.516,30.195-43.945
			c0.879-1.055,5.781-8.32,10.859-16.289c56.455-88.848,91.992-186.094,102.578-280.977c2.285-20.566,3.506-48.242,2.363-53.496
			c-0.508-2.617-1.387-14.609-1.914-26.699c-6.309-147.656-49.727-272.93-132.881-383.301c-23.633-31.426-43.857-54.617-74.131-85
			c-54.893-54.961-111.973-101.621-220.605-180.234c-82.969-60.039-107.402-78.066-136.719-101.18
			c-78.789-62.062-134.277-118.605-172.695-175.852c-25.059-37.305-45.176-78.965-58.223-120.273
			c-30.371-96.562-38.34-160.02-26.523-211.055c4.639-20.039,16.279-47.266,29.492-69.16c28.809-47.52,74.326-90.84,144.707-137.676
			c37.637-25.117,68.008-43.164,160.449-95.332c50.234-28.359,57.158-31.68,122.109-58.906
			c45.957-19.258,84.648-36.68,90.254-40.527c1.738-1.309,1.66-1.406-3.34-4.57c-7.969-5.156-14.697-11.367-20.479-18.984
			c-5.078-6.914-13.486-22.227-15.576-28.887c-0.605-1.836-1.494-3.496-1.924-3.75c-0.439-0.352-4.463,0.43-8.838,1.66
			c-16.816,4.453-25.566,5.957-29.424,4.98c-6.904-1.914-10.674-6.914-10.674-14.18c0-5.078,2.188-9.102,6.738-12.344l3.848-2.793
			l-8.135-2.012c-31.24-7.617-53.75-33.262-65.908-75.195c-1.23-4.199-2.373-7.793-2.539-8.066
			c-0.176-0.156-8.154,3.516-17.773,8.066c-13.74,6.641-18.125,8.398-21.191,8.398c-4.277,0-9.277-2.441-11.816-5.859
			c-1.836-2.461-2.793-9.277-1.924-12.949c0.361-1.328,5.869-7.969,12.334-14.883l11.826-12.52l-3.232-0.605
			c-7.002-1.328-17.695-5.176-25.996-9.473c-19.785-10.059-36.504-25.723-51.484-48.32c-3.848-5.781-7.09-10.586-7.266-10.762
			c-0.254-0.254-28.867,10.508-51.641,19.531c-148.008,58.457-265.84,125.957-371.934,213.047
			c-27.744,22.754-65.732,57.344-87.188,79.395c-61.533,63.281-135.146,186.27-172.793,288.613
			c-16.719,45.43-25.645,82.617-27.217,113.965c-0.615,11.738,2.275,54.531,5.342,79.219c3.936,31.777,11.631,62.754,32.822,132.598
			c28.799,94.902,51.123,151.797,113.711,290.625c71.777,159.219,93.398,212.793,111.953,277.48
			c8.75,30.469,15.586,61.465,26.348,119.492c3.857,20.918,9.629,51.113,12.686,66.953c10.771,55.586,14.443,89.902,14.443,134.805
			c-0.088,185.488-82.451,367.031-246.406,543.164c-18.203,19.512-45.957,46.914-59.785,58.906
			c-70.371,61.348-150.117,105.566-251.836,139.434c-27.041,9.004-54.443,16.895-87.529,25.293
			c-46.484,11.836-66.523,16.035-223.652,46.836c-62.324,12.266-82.461,16.719-161.68,35.547
			c-285.967,67.91-630.156,156.602-750.869,193.359c-336.924,102.676-827.637,316.699-1302.51,568.359
			c-158.613,84.043-403.887,222.344-530.898,299.375c-38.682,23.457-117.383,72.832-126.396,79.219
			c-8.848,6.289-21.533,17.578-21.533,19.258c0,1.133,11.641,0.176,18.369-1.582c5.703-1.484,55.156-18.652,115.996-40.273
			c234.238-83.242,296.738-103.809,453.428-149.59c349.082-101.797,676.807-181.895,989.57-241.68
			c634.717-121.328,1124.297-155.898,1468.828-103.652c71.172,10.859,164.648,30.566,273.115,57.695
			c67.051,16.797,106.182,27.227,246.758,65.742c97.52,26.777,142.939,38.867,187.842,50.234
			c196.699,49.629,406.602,89.297,636.816,120.371c94.023,12.598,158.35,16.641,268.301,16.641
			c73.174,0,121.055-1.328,237.656-6.582c134.707-6.035,165.352-7.168,235.02-8.398c76.777-1.484,108.984-0.176,153.711,6.23
			c109.941,15.742,207.031,60.469,300.43,138.555c23.535,19.688,43.242,37.891,69.766,64.414
			c28.965,29.062,48.32,49.824,99.707,106.895c96.543,107.305,135.234,146.875,187.402,191.855
			c80.352,69.062,179.355,128.594,284.492,170.957C7168.72,48079.117,7327.783,48106.949,7479.208,48101.07z M7421.435,47310.211
			c159.941-77.207,248.516-118.008,342.695-157.734c228.3-96.289,398.203-146.895,537.91-160.117
			c17.324-1.582,72.48-2.539,86.66-1.406c5.508,0.449,10.156,0.723,10.234,0.723c0.273-0.176-135.234-107.676-136.016-107.93
			c-0.352-0.195-12.344,22.578-26.523,50.586c-17.598,34.746-26.523,51.562-28.281,52.969c-1.836,1.562-3.496,2.09-6.641,2.09
			c-4.043,0-6.23-1.309-57.52-34.59l-53.223-34.648l-3.496,6.836c-1.836,3.75-14.004,28.711-26.973,55.391
			c-14.258,29.258-24.688,49.648-26.172,51.211c-2.188,2.285-3.145,2.637-7.188,2.637c-4.277-0.078-8.047-1.934-60.039-29.238
			c-30.449-16.035-55.762-28.809-56.113-28.359c-0.352,0.352-10.41,27.48-22.227,60.215c-24.082,66.445-23.105,64.336-30.976,64.336
			c-3.691,0-9.453-2.793-59.707-29.238c-30.547-16.016-55.664-29.043-55.859-28.965c-0.078,0.078-8.477,26.523-18.555,58.73
			c-10.059,32.207-18.887,59.785-19.609,61.27c-1.309,2.988-5.938,5.605-9.707,5.605c-1.23,0-27.129-10.508-57.598-23.281
			c-46.035-19.336-55.586-23.105-56.895-22.324c-4.473,2.812-17.246,13.574-17.598,14.805c-0.254,0.781-6.387,26.074-13.652,56.191
			c-8.242,34.395-13.75,55.508-14.707,56.914c-0.977,1.211-3.145,2.695-5.078,3.301c-3.145,1.074-5.684,0.625-42.012-7.773
			l-38.691-9.023l-14.629,14.004c-19.258,18.379-90.586,92.793-90.586,94.453
			C7342.666,47348.199,7349.833,47344.781,7421.435,47310.211z M7517.646,47229.508c3.848-14.805,15.84-66.191,15.586-66.543
			c-0.449-0.43-16.211,12.871-34.316,29.062c-21.719,19.355-31.777,28.887-30.82,29.258c1.055,0.332,46.836,11.191,48.047,11.367
			C7516.513,47232.75,7517.216,47231.246,7517.646,47229.508z M7690.615,47134.527c1.66-5.43,9.883-31.797,18.301-58.477
			c8.379-26.699,15.215-48.672,15.137-48.75c-0.273-0.273-35.547,21.172-48.32,29.395c-28.105,18.047-74.395,50.781-73.359,51.816
			c0.703,0.723,83.418,35.723,84.473,35.801C7687.197,47144.312,7688.857,47139.859,7690.615,47134.527z M7873.037,47016.52
			c11.641-32.031,21.621-59.16,22.226-60.312c1.484-2.969,5.684-5.332,9.375-5.332c2.266,0,16.895,7.266,59.961,29.746
			c31.25,16.387,57.07,29.512,57.422,29.082c0.254-0.371,12.871-26.016,28.008-56.992c29.844-61.367,28.789-59.609,36.328-59.609
			c3.145,0,8.848,3.496,56.719,34.57c29.238,19.004,53.477,34.57,53.75,34.57c0.352,0,11.641-21.797,25.039-48.301l24.512-48.32
			l2.793-19.355c1.582-10.586,2.715-19.336,2.617-19.434c-0.176-0.176-4.023,1.484-8.652,3.691
			c-22.5,10.488-57.773,23.008-102.598,36.23c-178.73,53.047-236.074,72.48-307.246,104.258
			c-27.402,12.246-93.223,45.586-93.223,47.266c0,0.254,24.941,13.477,55.41,29.492c36.23,19.004,55.488,28.633,55.84,28.008
			C7851.669,47075.172,7861.396,47048.57,7873.037,47016.52z M6886.689,46767.047c39.57-4.023,69.414-20.039,83.691-44.902
			l2.715-4.902l-5.859-9.023c-12.715-19.414-42.285-59.336-71.973-96.973c-9.258-11.816-24.941-32.031-34.746-45.078
			c-55.332-72.91-98.125-123.691-175.684-208.34c-48.926-53.496-89.023-95.059-149.336-154.844l-50.137-49.824l-2.891,3.418
			c-6.309,7.266-20.586,26.699-27.676,37.559c-19.434,29.844-36.68,64.512-52.344,105.312
			c-11.191,29.043-27.656,80.273-31.328,97.324c-4.043,18.926-10.508,61.094-16.211,105.918
			c-5.332,41.309-13.301,115.293-12.598,116.074c0.781,0.703,32.91,15.059,59.355,26.348
			c165.703,71.074,304.355,111.25,416.66,120.625C6845.634,46768.004,6872.158,46768.453,6886.689,46767.047z M6818.681,46447.984
			c35.801-54.531,81.23-97.07,139.707-130.859c18.73-10.762,42.441-21.875,94.102-44.023
			c77.734-33.359,101.543-44.199,141.367-64.082c63.379-31.68,110.117-61.016,150.117-94.18
			c12.441-10.332,42.539-40.625,51.562-52.012c37.188-46.641,55.84-97.52,55.586-151.426c0-7.168-1.23-18.301-1.582-14.805
			c-0.254,2.812-10.078,15.684-20.742,27.227c-6.562,7.09-17.246,19.355-23.73,27.148c-12.598,15.059-14.434,16.465-21.348,16.367
			c-5.43-0.078-9.805-2.891-12.266-7.891c-1.914-4.023-1.914-4.023-0.879-27.734c0.625-13.125,1.68-30.117,2.539-37.812
			c1.504-14.805,2.031-44.922,0.801-50.703l-0.801-3.477l-1.484,2.617c-0.879,1.406-4.805,8.047-8.828,14.785
			c-9.727,16.465-26.094,41.23-33.105,50.254c-7.168,9.18-11.816,12.344-18.457,12.344c-6.309,0-11.465-2.988-13.398-7.617
			c-0.957-2.285-1.66-8.848-2.363-21.27c-1.23-23.027-2.969-36.504-8.574-66.27l-2.363-12.422l-4.121,6.816
			c-14.883,24.863-35.273,50.156-54.18,67.305c-12.441,11.309-22.227,19.102-45,35.547c-26.602,19.355-35.176,26.348-47.871,38.945
			c-12.52,12.539-20.566,22.422-32.305,39.492c-14.531,21.27-25.82,32.91-42.461,43.848c-21.348,14.18-39.727,20.312-93.223,31.426
			c-14.18,2.969-31.777,6.836-39.121,8.75c-25.039,6.406-105.918,32.402-134.629,43.34
			c-80.273,30.469-132.09,65.645-169.023,114.668l-5,6.562l7.793,8.145c56.816,59.004,133.32,143.027,171.738,188.555
			c7.012,8.301,12.871,15.137,13.047,15.137C6810.263,46460.68,6814.13,46454.977,6818.681,46447.984z M5954.804,46374.898
			c25.127-42.988,50.674-90.605,103.291-193.027c83.066-161.582,110.469-207.969,146.523-248.066l7.354-8.125l-2.1-1.68
			c-4.453-3.496-45.684-30.723-58.984-39.043c-50.078-31.23-90.957-52.324-140.068-72.207c-10.576-4.297-24.502-9.98-30.889-12.52
			c-78.086-31.777-186.367-59.434-280.986-71.777c-50.254-6.465-74.414-8.047-158.35-10.332l-9.023-0.254v2.715
			c0,6.465-1.924,32.031-3.584,46.387c-10.244,91.816-44.033,187.5-96.904,274.863c-4.121,6.738-8.926,14.453-10.762,17.148
			l-3.34,4.902l32.578,23.203c143.896,102.598,290.957,199.062,444.316,291.484l43.242,26.074l4.375-7.266
			C5943.857,46393.453,5949.902,46383.297,5954.804,46374.898z M6119.638,45783.609c-1.23-47.969-7.1-98.926-15.234-131.836
			c-22.324-90.938-64.082-172.52-126.582-247.461c-17.334-20.742-31.953-36.484-55.059-59.258
			c-47.881-47.09-92.52-83.77-195.547-160.625c-59.443-44.375-87.363-65.996-115.547-89.629
			c-105.84-88.848-166.143-172.441-195.381-270.996c-29.756-100.508-31.777-153.555-7.705-206.777
			c21.445-47.617,53.662-88.926,101.104-129.805c35.801-30.82,70.986-56.191,162.812-117.461
			c45.605-30.391,53.838-35.195,117.295-68.555c31.855-16.797,58.74-31.406,71.953-39.199l5.957-3.438l-4.727-3.223
			c-12.871-8.848-25.117-26.621-30.723-44.375l-1.582-4.902l-11.895,2.539c-13.828,2.969-17.949,2.871-22.5-0.625
			c-5.605-4.277-7.188-11.816-3.857-18.379c2.1-4.121,2.1-3.945,0.361-3.945c-2.637,0-14.531-5.508-21.016-9.707
			c-15.146-9.883-26.787-25.215-34.316-45.176l-3.32-8.828l-9.199,3.926c-9.971,4.297-15.137,5-19.785,2.539
			c-5.859-2.969-8.916-9.98-7.266-16.445c0.801-2.891,2.461-5.176,7.188-9.727c3.32-3.32,5.957-6.035,5.859-6.211
			c-0.176-0.078-2.715-0.703-5.605-1.309c-10.938-2.363-24.766-9.199-36.494-18.125c-8.232-6.309-22.236-20.742-29.941-31.074
			c-3.76-5-7.178-9.18-7.607-9.375c-0.879-0.332-53.848,21.016-76.074,30.742c-151.523,65.898-263.652,141.621-366.328,247.461
			c-31.68,32.637-62.5,71.68-94.277,119.395c-52.266,78.516-85.43,150.82-94.004,204.922c-1.934,12.148-2.637,52.695-1.309,71.777
			c2.266,31.953,6.367,58.379,20.303,130.859c7.432,38.691,11.553,57.16,17.852,79.648c4.375,15.676,14.189,46.055,18.73,57.863
			l1.846,4.812l26.514,19.18c61.367,44.375,95.42,69.934,128.418,96.367c112.92,90.332,187.402,175.156,239.404,272.402
			c45.781,85.605,72.92,184.609,79.219,288.613c0.527,8.652,1.133,18.984,1.406,23.008l0.527,7.188h3.672
			c2.012,0,8.223,0.605,13.74,1.309c5.518,0.684,21.455,1.738,35.361,2.188c63.291,2.188,118.867,8.223,182.07,19.766
			c75.107,13.848,159.492,37.832,221.914,63.125c8.916,3.594,21.963,8.848,28.965,11.641c27.129,10.781,64.258,28.359,90.508,42.812
			l9.629,5.254l0.439-15.078C6120.068,45813.102,6119.98,45796.129,6119.638,45783.609z M5907.187,44235.465
			c3.408-0.859,18.203-10.762,28.271-19.082c15.137-12.246,30.547-28.613,39.736-42.363c3.77-5.41,9.805-16.367,9.805-17.578
			c0-1.328-64.346,16.797-88.584,24.844c-15.41,5.176-33.35,12.266-37.285,14.707c-2.891,1.934,7.441,22.578,15.225,30.547
			C5883.72,44236.09,5893.974,44238.883,5907.187,44235.465z M5832.607,44156.949c8.398-8.926,27.832-35.703,39.395-54.434
			c10.928-17.5,25.645-45.703,24.492-46.836c-0.43-0.449-30.273,9.98-67.754,23.633c-18.105,6.562-55.312,21.016-65.371,25.293
			l-3.242,1.406l1.758,6.289c0.957,3.516,3.75,10.508,6.123,15.508c3.848,7.793,5.518,10.156,11.982,16.719
			c11.562,11.641,21.621,15.586,40.352,15.664l9.121,0.098L5832.607,44156.949z M5732.822,44066.715
			c4.102-1.133,25.293-37.383,35.879-61.445c5.605-12.793,11.738-29.688,11.113-30.391c-0.869-0.859-116.67,43.145-121.23,46.133
			c-2.539,1.66,17.852,24.609,30.117,33.789c9.277,6.914,20.039,11.738,28.887,12.969
			C5720.556,44068.199,5729.658,44067.496,5732.822,44066.715z M5270.283,43998.082c4.551-0.977,6.562-2.09,13.564-7.695
			c30.459-24.336,55.322-53.418,68.457-80.02c3.936-8.047,7.09-15.938,6.65-16.895c-0.088-0.527-9.102,2.012-19.961,5.527
			c-53.564,17.324-95.938,33.438-116.855,44.453c-10.332,5.43-10.156,5-4.814,17.949c4.561,11.113,8.135,16.895,15.225,24.434
			C5243.232,43997.203,5255.488,44001.148,5270.283,43998.082z M5176.445,43912.477l7.607-1.836l8.145-10.156
			c16.895-21.113,32.744-43.691,46.309-66.27c10.234-16.797,27.051-50.586,25.82-51.738c-0.254-0.254-11.729,3.594-25.557,8.418
			c-61.436,21.621-113.877,41.23-134.453,50.508l-4.99,2.168l1.309,5.781c3.77,16.895,11.641,34.941,19.961,45.625
			C5134.687,43912.906,5151.494,43918.238,5176.445,43912.477z M5075.517,43797.984c6.211-7.266,26.875-43.691,35.801-63.027
			c7.617-16.465,18.379-45.098,17.334-46.133c-0.693-0.703-98.486,37.285-142.588,55.488c-1.855,0.703-3.34,1.66-3.34,2.012
			s2.373,4.121,5.176,8.418c15.137,22.578,33.955,37.812,53.916,43.574c8.145,2.461,13.311,2.988,22.764,2.637
			C5072.978,43800.504,5073.408,43800.426,5075.517,43797.984z"/>
		<path d="M7640.283,47809.859c-7.891-0.879-25.039-4.922-33.359-7.715c-90.781-31.426-132.793-136.035-89.102-221.895
			c15.762-30.82,40-54.707,71.25-70.117c51.211-25.117,110.82-20.84,159.395,11.562c11.914,7.969,31.328,27.051,40,39.297
			c11.289,16.016,21.797,40.352,25.488,59.082c8.223,41.934,0.254,84.375-22.246,118.613
			c-25.547,38.867-64.941,63.984-110.293,70.469C7672.919,47810.289,7648.408,47810.719,7640.283,47809.859z M7680.81,47786.832
			c68.105-11.641,116.855-71.25,114.141-139.629c-1.055-26.25-8.574-49.023-23.457-71.23c-6.484-9.727-19.434-23.555-29.316-31.25
			c-35.371-27.676-82.207-35.898-125.098-22.148c-11.113,3.574-29.316,12.852-38.34,19.59c-21.875,16.289-39.57,39.844-48.32,64.355
			c-20.566,57.676-0.449,121.055,49.805,157.031c16.992,12.168,37.285,20.488,57.949,23.633
			C7650.087,47789.02,7668.896,47788.941,7680.81,47786.832z"/>
		<path d="M7681.865,47748.844c-17.949-5.078-31.875-15.938-39.746-31.172c-5-9.531-7.09-18.281-7.09-29.316
			c0-17.422,5.781-31.68,17.949-43.77c12.07-12.168,26.348-17.949,43.77-17.949c26.602,0,48.828,15.41,58.457,40.449
			c2.715,7.09,2.812,7.617,2.812,21.27s-0.098,14.18-2.812,21.27c-6.816,17.676-19.688,30.547-37.363,37.207
			c-6.484,2.441-8.242,2.715-19.355,2.988C7689.814,47749.977,7684.912,47749.723,7681.865,47748.844z M7712.236,47729.137
			c10.84-4.199,21.094-14.434,25.293-25.273c2.891-7.539,3.32-20.059,0.879-28.027c-4.473-14.785-17.422-26.777-32.48-30.02
			c-5.957-1.309-17.598-0.605-23.203,1.387c-13.301,4.648-24.414,16.738-28.086,30.391c-1.406,5.41-1.582,15.215-0.273,20.742
			c3.242,14.102,14.531,26.348,28.809,31.426C7690.771,47732.398,7704.619,47732.125,7712.236,47729.137z"/>
		<path d="M8402.001,47230.035c-9.707-1.934-20.312-9.648-24.941-18.125c-8.145-14.883-5.684-37.656,6.035-57.168
			c4.902-8.145,16.367-20.742,24.238-26.699c6.836-5.078,16.719-10.059,25.137-12.695c9.023-2.793,23.555-2.891,30.801-0.156
			c10.156,3.75,18.047,11.289,21.797,20.996c2.988,7.617,3.34,22.07,0.879,31.777
			C8476.396,47205.855,8434.813,47236.5,8402.001,47230.035z M8418.642,47211.637c18.105-3.848,37.539-20.469,46.211-39.57
			c7.617-16.973,5.332-32.559-5.703-38.145c-3.672-1.934-5.41-2.285-11.367-2.207c-23.359,0.352-50.332,24.785-56.113,50.957
			C8387.118,47203.141,8398.856,47215.758,8418.642,47211.637z"/>
	</g>
</g>
</svg>
