<?xml version="1.0" encoding="utf-8"?>
<!-- Generator: Adobe Illustrator 16.0.4, SVG Export Plug-In . SVG Version: 6.00 Build 0)  -->
<!DOCTYPE svg PUBLIC "-//W3C//DTD SVG 1.1//EN" "http://www.w3.org/Graphics/SVG/1.1/DTD/svg11.dtd">
<svg version="1.1" id="Layer_1" xmlns="http://www.w3.org/2000/svg" xmlns:xlink="http://www.w3.org/1999/xlink" x="0px" y="0px"
	 width="2048px" height="1336px" viewBox="-524 -168 2048 1336" enable-background="new -524 -168 2048 1336" xml:space="preserve">
<g>
	<g transform="translate(0.000000,5118.000000) scale(0.100000,-0.100000)">
		<path d="M8016.864,48389.926c-246.679-9.281-486.347-90.664-681.455-231.355c-51.602-37.129-99.082-78.652-156.328-136.578
			c-34.59-34.879-53.057-54.824-119.678-128.77c-88.027-97.812-121.836-132.871-166.68-172.828
			c-119.6-106.707-232.539-158.957-375.078-173.438c-59.99-6.152-144.805-4.973-363.457,4.797
			c-61.26,2.723-107.354,4.688-164.629,6.934c-42.881,1.68-186.807,2.242-225.186,0.98c-87.744-3.031-137.08-7.324-231.055-20.121
			c-282.852-38.691-532.681-87.941-775.654-152.906c-20.425-5.473-64.399-17.398-97.705-26.488
			c-203.218-55.695-232.236-63.414-311.87-83.336c-106.196-26.57-201.743-47.195-276.396-59.605
			c-264.179-43.965-615.317-39.086-1045.39,14.68c-206.753,25.785-441.23,64.176-676.592,110.867
			c-297.69,59.012-618.931,137.469-948.183,231.668c-224.023,63.984-303.853,89.68-544.687,175.18
			c-117.041,41.531-167.061,58.906-176.348,61.152c-28.032,6.734-50.801,0.699-58.818-15.547c-2.246-4.574-2.725-6.84-2.725-12.887
			c0-10.156,3.613-17.391,13.867-27.945c15.044-15.434,20.513-19.246,91.167-63.41c117.236-73.27,276.973-166.184,472.573-274.832
			c584.043-324.555,1228.979-614.141,1659.643-745.176c125.347-38.086,490.557-132.676,785.601-203.305
			c128.291-30.781,161.699-38.191,237.91-53.148c153.003-29.883,188.95-37.406,238.886-49.836
			c185.337-46.02,307.275-110.105,410.825-215.508c215.527-219.637,313.433-451.219,288.223-681.465
			c-2.539-22.773-4.985-38.406-10.747-67.82c-2.627-13.379-8.994-47.078-14.16-74.746c-14.072-75.801-21.689-109.316-33.32-147.801
			c-20.415-67.512-42.988-122.812-122.021-298.184c-74.556-165.52-102.397-238.984-139.814-369.316
			c-18.369-63.984-23.359-90.84-28.325-153.391c-3.721-46.797-2.358-68.184,7.017-109.434
			c25.405-111.766,111.68-278.426,197.363-381.016c24.819-29.707,78.252-80.605,125.444-119.305
			c129.36-106.301,272.979-186.406,462.432-257.922c13.291-4.98,25.684-10.262,27.451-11.629
			c7.91-6.066,74.844-33.117,183.77-74.445c29.492-11.141,32.627-12.129,37.412-11.816c9.092,0.762,14.463,6.934,14.258,16.406
			c-0.176,6.641-4.189,24.805-9.375,41.516c-10.146,33.133-29.775,74.668-51.68,109.238c-3.604,5.77-6.543,10.457-6.338,10.457
			c0.771,0,26.27-10.664,43.086-18.086c41.025-17.969,81.963-33.789,120.156-46.395c14.17-4.707,20.039-6.262,24.912-6.367
			c3.525-0.09,8.906-0.871,12.021-1.75c9.395-2.637,16.602,0.098,20.127,7.531c2.744,5.555,2.637,8.301-1.357,21.883
			c-12.012,41.906-39.092,91.457-80.215,147.043c-3.428,4.688-6.152,8.504-5.957,8.504s6.543-2.547,13.965-5.781
			c25.4-10.645,65.654-25.195,104.248-37.605c55.215-17.785,57.842-18.379,64.189-13.977c6.162,4.219,7.324,6.738,7.227,16.113
			c0,10.156-2.246,21.496-6.846,35.383c-4.688,14.062-10.352,25.684-20.205,41.309c-9.678,15.438-15.449,23.172-26.377,35.664
			c-16.025,18.379-60.195,55.887-65.664,55.887c-0.586,0-8.008,4.219-16.611,9.297c-30.693,18.352-66.631,35.352-136.387,64.453
			c-69.941,29.328-74.16,31.379-128.389,61.875c-140.781,79.141-197.734,115.285-249.131,158.066
			c-14.961,12.52-41.523,38.301-52.275,50.703c-30.195,35.078-53.242,79.043-60.469,115.305
			c-8.896,44.258-2.246,100.234,21.895,183.66c12.588,43.781,21.885,68.691,36.328,97.629
			c36.455,72.781,92.324,139.09,179.57,213.055c23.457,19.844,77.09,61.965,100.732,78.965l5,3.594l-3.32-11.035
			c-9.404-30.664-17.012-63.895-28.057-122.812c-16.611-87.637-19.922-113.516-20.801-159.746
			c-0.781-41.406,1.162-62.91,8.105-90.84c23.057-92.539,102.578-228.242,194.229-331.707c14.658-16.496,49.727-51.574,70.928-70.82
			c119.678-108.938,248.252-186.32,428.125-257.539c20.312-8.027,28.145-11.621,29.6-13.391c3.33-4.316,32.158-16.504,98.584-41.727
			c74.355-28.145,92.91-34.68,98.379-34.68c10.166,0,16.221,7.129,15.264,18.066c-1.289,13.391-9.287,41.133-18.301,62.941
			c-4.971,12.098-16.885,36.141-27.832,56.172c-3.506,6.434-6.143,11.816-5.957,12.012c0.195,0.281,1.27,0,2.256-0.488
			c0.967-0.488,13.184-5.176,27.158-10.449c13.965-5.273,33.789-13.105,43.955-17.402c25.508-10.742,49.15-19.727,72.197-27.551
			c16.035-5.359,20.137-6.453,23.359-5.957c11.338,1.855,18.672,12.012,16.318,22.57c-1.66,7.234-7.725,25.508-11.338,34.09
			c-1.865,4.406-5.664,13.887-8.398,21.125c-11.045,29.492-24.814,52.539-45.146,75.605c-3.701,4.199-6.143,7.43-5.361,7.129
			c6.641-2.617,40.83-13.566,59.014-18.75c27.744-8.027,86.768-22.961,90.752-22.961c4.307,0,11.045,3.605,13.184,7.129
			c2.949,4.883,3.232,8.312,1.572,17.793c-5.273,30.676-21.885,58.398-52.852,88.418c-19.629,19.055-49.639,41.223-59.697,44.238
			c-2.539,0.781-10.156,4.902-16.904,9.199c-28.818,18.262-53.447,32.043-118.223,66.242
			c-68.486,36.141-72.207,38.398-138.73,82.949c-74.043,49.727-108.643,74.441-140.986,100.516
			c-40.244,32.551-72.393,65.383-92.91,94.785c-13.584,19.531-32.725,56.074-38.496,73.469
			c-14.365,43.379-10.459,92.129,14.541,179.277c15.635,54.324,33.525,93.613,62.93,137.762
			c25.107,37.91,50.02,67.316,90.957,107.473c43.281,42.508,76.709,69.863,178.213,145.965
			c88.809,66.633,121.924,92.316,158.086,123c138.438,117.539,219.531,229.5,265.039,366.09
			c20.127,60.469,28.73,108.43,33.154,185.637c1.162,20.117,1.455,79.434,0.391,93.301l-0.596,8.973l14.736,8.984
			c15.156,9.289,58.633,37.824,71.24,46.906l7.129,5.086l6.533-5.77c63.32-55.684,158.105-102.773,293.604-145.871
			c27.939-8.895,51.289-14.754,90.068-22.859c50.518-10.449,63.701-14.258,84.023-24.414c24.912-12.414,37.705-24.738,60.576-58.125
			c15.527-22.785,33.701-43.098,54.023-60.488c14.082-11.934,19.248-15.949,47.588-36.543
			c27.754-20.129,44.443-34.102,59.209-49.238c25.117-25.91,43.379-52.461,65.557-95.555c11.436-22.082,13.096-23.938,21.494-23.938
			c5.859,0,10.85,2.141,13.486,5.859c2.725,3.809,19.053,86.57,22.461,113.348c0.605,4.582,1.279,9.961,1.562,12.004l0.586,3.816
			l3.232-4.793c1.758-2.648,8.584-13.77,15.156-24.621c17.676-29.512,31.65-57.156,33.691-66.641
			c0.869-4.207,4.688-9.273,8.311-11.129c6.338-3.34,16.689-0.977,20.615,4.492c3.398,4.793,12.803,57.547,14.736,82.664
			c1.074,13.66,0.986,17.078-1.455,43.855c-1.377,16.016-2.441,29.211-2.354,29.297c0.107,0.117,5.391-5.359,11.729-12.098
			c13.193-14.055,15.742-18.066,32.158-49.434c6.533-12.414,12.793-23.652,13.857-24.816c3.125-3.523,6.846-5.105,12.012-5.105
			c6.172,0,10.947,2.664,13.691,7.441c2.354,4.207,5.957,22.293,8.789,43.211c2.051,15.703,2.324,60.352,0.498,75.402
			c-13.389,107.469-78.564,197.461-201.943,278.945c-36.455,24.023-67.334,41.727-115.303,65.945
			c-48.643,24.523-76.309,37.121-172.441,78.352c-79.326,34.082-103.066,45.82-136.572,67.793
			c-24.639,16.133-46.133,33.133-65.566,51.797l-10.752,10.262l15.82,15.328c8.701,8.414,32.549,31.852,52.979,52.082l37.129,36.84
			l7.803-10.375c10.068-13.277,37.705-41.113,52.764-53.145c45.918-36.734,97.988-63.113,177.715-90.281
			c38.281-12.988,101.191-32.605,120.273-37.5c10.254-2.547,30.674-7.137,45.43-10.164c45.625-9.387,64.58-14.934,82.363-24.25
			c18.174-9.461,34.59-25.098,49.424-47.07c23.369-34.59,46.807-58.438,84.033-85.594c44.16-32.344,53.145-39.473,70.127-56.75
			c23.965-24.324,42.617-51.297,62.061-89.715c4.697-9.367,9.287-17.871,10.244-18.848c6.367-7.023,20.039-6.035,25.117,1.648
			c2.529,3.926,17.871,83.547,21.777,113.059l0.791,5.672l9.473-15.438c18.271-29.609,32.754-56.875,36.455-68.586
			c4.014-12.617,7.129-15.848,16.025-16.406c3.984-0.203,6.338,0.195,8.867,1.562c7.148,3.887,7.432,4.883,15.352,50.988
			c4.6,27.059,5.273,46.504,2.354,76.102c-1.084,11.535-1.963,21.105-1.768,21.191c0.117,0.195,4.795-4.578,10.273-10.527
			c11.025-11.922,14.648-17.586,30.381-47.676c5.479-10.469,11.23-20.254,12.803-21.707c7.51-7.031,20.312-4.777,25,4.305
			c1.934,3.711,5.557,22.656,7.822,40.363c2.451,18.738,2.451,56.648,0.098,73.75c-4.805,34.59-12.607,59.988-28.047,91.355
			c-29.795,60.754-81.572,114.797-159.258,166.484c-66.533,44.254-127.792,75.117-274.052,137.84
			c-75.625,32.434-96.133,42.703-130.928,65.945c-39.561,26.398-72.676,57.551-100.713,94.781
			c-11.445,15.156-29.717,43.578-29.717,46.215c0,0.68,5.195,7.719,11.533,15.637c14.17,17.676,34.023,43.379,50.039,64.676
			c6.641,8.891,15.43,20.316,19.561,25.395c34.658,43.098,82.051,106.602,96.895,129.953c4.219,6.531,47.598,50.312,67.197,67.793
			c30.029,26.684,58.838,46.41,93.701,64.004c98.115,49.617,204.589,58.535,350.253,29.32
			c57.861-11.551,107.979-24.941,241.621-64.285c32.754-9.68,67.803-19.754,77.988-22.586
			c127.305-34.484,291.631-63.113,447.461-77.762c42.314-4.008,70.928-2.746,107.363,4.605c46.914,9.457,75.82,25.395,86.475,47.762
			c3.428,7.129,3.516,7.609,3.516,19.055c0,10.438-0.283,12.402-2.539,17.875c-5.664,13.297-15.342,26.094-26.875,35.355
			c-11.533,9.289-10.244,6.172-14.453,35.492c-3.223,22.258-3.535,26.461-2.441,27.441c5.078,4.688,191.885,152.316,193.643,152.996
			c1.162,0.496,5.869,1.848,10.449,2.918c72.783,17.895,126.914,60.297,157.9,123.605c14.355,29.516,22.754,60.754,25.869,97.227
			c1.377,16.301,0.586,57.637-1.445,73.074c-14.072,105.309-67.334,212.98-166.113,336.281
			c-58.418,72.785-138.525,155.234-229.199,235.539c-63.779,56.598-162.178,136.102-215.918,174.707
			c-114.795,82.355-243.467,142.637-383.477,179.676C8266.776,48380.949,8141.337,48394.613,8016.864,48389.926z
			 M8109.188,48357.773c225.498-8.766,435.645-75.902,613.076-195.781c63.018-42.684,174.785-132.48,258.428-207.711
			c58.232-52.469,121.143-115.492,166.377-166.785c121.641-137.949,190.82-268.375,200.977-378.883
			c1.279-14.059,1.279-44.246-0.098-57.742c-6.846-69.062-36.836-123.781-86.357-157.59
			c-32.354-22.086-69.678-34.688-120.674-40.746c-17.979-2.047-68.203-2.922-90.566-1.461
			c-178.311,11.73-422.959,89.992-756.494,242.219c-66.338,30.281-121.758,56.457-236.924,112.051
			c-104.639,50.508-152.9,72.785-161.123,74.355c-13.378,2.445-23.632-13.777-15.908-25.309
			c1.738-2.637,21.093-24.414,44.531-50.508c187.109-207.34,364.736-345.09,558.945-433.617
			c78.262-35.645,168.447-66.816,322.422-111.66c82.354-24.02,117.852-36.34,149.482-52.168
			c17.588-8.805,30.303-17.199,38.301-25.418c8.301-8.391,12.705-15.824,13.291-22.277c0.283-4.383,0-5.559-2.549-9.07
			c-8.193-11.25-30.674-20.82-65.156-27.664c-34.688-6.93-54.912-7.406-106.016-2.531
			c-129.443,12.402-275.811,36.934-390.801,65.465c-32.432,8.117-52.666,13.672-120.664,33.707
			c-124.082,36.531-164.629,47.477-217.773,59.098c-140.479,30.691-248.74,29.125-343.525-5.078
			c-35.664-12.801-65.547-28.039-99.639-50.598c-27.646-18.379-46.895-34.402-79.922-66.445
			c-9.873-9.574-17.988-17.203-18.184-17.008c-7.412,9.879-10.547,13.496-17.285,19.93c-22.275,21.297-55.195,34.789-94.59,38.605
			c-20.996,2.051-59.883,0.895-97.686-3.031c-131.797-13.383-297.295-63.695-489.688-148.887
			c-14.053-6.258-25.674-11.254-25.889-11.059c-0.879,0.98-4.775,60.781-6.045,94.285c-0.674,16.727-0.986,19.055-2.744,21.496
			c-2.441,3.422-9.57,7.129-13.584,7.129c-5.254,0-11.416-3.902-13.965-8.789c-2.256-4.293-2.344-4.684-1.748-24.918
			c2.432-81.961,19.238-244.129,35.264-340.965c6.543-39.09,10.059-52.949,25.098-99.168
			c52.578-161.121,125.85-258.719,245.615-327.305c24.443-13.973,44.473-23.34,107.871-50.594
			c97.607-41.914,125.938-54.824,174.893-79.434c91.533-46.133,153.301-87.441,202.627-135.703
			c32.744-32.051,53.047-58.809,70.049-92.148c14.561-28.516,22.666-53.828,27.354-84.883c2.158-14.875,3.418-43.496,2.441-54.836
			l-0.762-7.605l-4.883,8.309c-5.771,9.648-9.678,14.453-25.615,31.543c-6.455,6.848-17.793,19.836-25.205,28.82
			c-11.533,13.887-14.17,16.523-17.871,17.898c-7.92,3-16.416-0.312-20.029-7.918c-2.051-4.102-2.158-5.188-1.465-21.211
			c0.869-24.922,2.158-44.453,4.59-69.082c1.865-19.621,1.943-23.438,0.977-35.645c-0.684-7.539-1.553-14.953-1.943-16.633
			l-0.898-2.891l-2.246,4.375c-4.297,8.613-22.871,38.781-33.809,55.195c-13.477,20.324-22.559,31.875-27.734,35.266
			c-8.301,5.477-19.834,3.523-24.629-4.289c-1.943-3.133-2.246-5.273-2.832-21.602c-1.074-26.492-3.994-49.617-10.752-85
			l-3.115-16.004l-3.037,5.176c-6.846,11.699-24.521,37.293-32.52,47.363c-10.557,13.211-33.721,37.129-46.221,47.598
			c-5.068,4.297-16.523,13.184-25.303,19.727c-44.248,32.742-55.195,41.133-65.068,50.137
			c-17.402,15.828-30.088,30.762-46.309,54.414c-19.355,28.223-33.33,42.391-55.977,56.484
			c-23.564,14.648-46.699,22.078-107.109,34.461c-45.312,9.289-69.541,16.027-117.402,32.246
			c-128.691,43.879-215.059,91.641-273.184,151.047c-42.305,43.484-73.477,95.352-169.424,282.266
			c-69.365,135.023-104.824,200.098-141.465,258.891c-23.75,38.215-52.373,78.566-58.135,82.074
			c-4.102,2.551-11.719,2.551-16.318,0.109c-6.24-3.336-9.57-12.906-6.934-19.945c0.498-1.375,5.576-8.59,11.143-16.109
			c11.523-15.629,32.93-47.199,32.93-48.746c0-0.586-8.018-5.777-17.783-11.531c-158.662-93.699-363.643-227.547-528.271-344.977
			l-34.492-24.621l-8.301,11.32c-17.49,23.934-18.77,25.117-27.266,24.414c-4.199-0.371-5.957-1.066-8.203-3.223
			c-3.516-3.398-5.371-8.879-4.492-13.371c0.488-2.832,28.135-42.988,33.701-49.043c0.977-1.18,6.455-9.285,12.119-18.184
			c63.018-99.168,102.676-207.703,114.492-313.602c2.549-22.961,3.916-53.848,2.646-59.707c-0.576-2.93-1.553-16.32-2.139-29.805
			c-7.051-164.816-55.498-304.629-148.32-427.82c-26.377-35.078-48.955-60.969-82.744-94.875
			c-61.26-61.348-124.971-113.426-246.23-201.16c-92.598-67.023-119.863-87.141-152.588-112.941
			c-87.949-69.266-149.883-132.371-192.744-196.27c-27.988-41.641-50.439-88.133-64.99-134.246
			c-33.906-107.773-42.798-178.605-29.609-235.566c5.176-22.363,18.164-52.754,32.92-77.188
			c32.158-53.047,82.959-101.387,161.514-153.672c42.002-28.039,75.898-48.176,179.082-106.406
			c56.064-31.652,63.799-35.352,136.299-65.754c51.289-21.484,94.473-40.926,100.723-45.223c1.943-1.465,1.855-1.574-3.721-5.098
			c-8.896-5.762-16.396-12.695-22.861-21.191c-5.664-7.715-15.049-24.816-17.383-32.238c-0.674-2.059-1.66-3.906-2.148-4.199
			c-0.488-0.379-4.98,0.48-9.863,1.855c-18.76,4.973-28.535,6.652-32.842,5.566c-7.705-2.137-11.904-7.715-11.904-15.828
			c0-5.664,2.432-10.156,7.52-13.781l4.297-3.113l-9.092-2.246c-34.863-8.496-59.99-37.121-73.564-83.926
			c-1.367-4.688-2.637-8.703-2.832-9.004c-0.195-0.176-9.102,3.914-19.834,9.004c-15.332,7.41-20.225,9.363-23.652,9.363
			c-4.775,0-10.361-2.715-13.193-6.531c-2.041-2.746-3.115-10.352-2.148-14.453c0.41-1.477,6.562-8.898,13.77-16.613l13.203-13.973
			l-3.613-0.684c-7.812-1.477-19.746-5.773-29.014-10.566c-22.08-11.223-40.732-28.703-57.461-53.938
			c-4.287-6.445-7.91-11.816-8.105-12.012c-0.283-0.281-32.217,11.738-57.646,21.809
			c-165.195,65.242-296.709,140.586-415.127,237.793c-30.967,25.391-73.364,64.004-97.314,88.613
			c-68.677,70.625-150.84,207.898-192.861,322.137c-18.657,50.703-28.623,92.207-30.376,127.188
			c-0.688,13.117,2.539,60.879,5.962,88.43c4.39,35.469,12.979,70.039,36.631,147.996c32.144,105.93,57.061,169.426,126.919,324.375
			c80.117,177.715,104.248,237.512,124.956,309.719c9.766,34.004,17.397,68.594,29.409,133.359
			c4.307,23.348,10.747,57.059,14.16,74.734c12.021,62.039,16.118,100.34,16.118,150.457
			c-0.098,207.031-92.026,409.66-275.024,606.25c-20.317,21.777-51.294,52.363-66.729,65.75
			c-78.545,68.469-167.549,117.824-281.084,155.625c-30.181,10.051-60.767,18.859-97.7,28.23
			c-51.875,13.215-74.243,17.902-249.624,52.277c-69.561,13.691-92.041,18.66-180.459,39.676
			c-319.175,75.797-703.345,174.789-838.076,215.816c-376.055,114.605-923.76,353.48-1453.789,634.371
			c-177.031,93.801-450.791,248.168-592.559,334.145c-43.169,26.18-131.016,81.289-141.074,88.418
			c-9.878,7.02-24.033,19.617-24.033,21.492c0,1.27,12.998,0.203,20.498-1.766c6.367-1.656,61.562-20.816,129.468-44.945
			c261.445-92.91,331.201-115.871,506.094-166.965c389.624-113.621,755.42-203.023,1104.502-269.75
			c708.438-135.422,1254.878-174.004,1639.424-115.695c79.438,12.125,183.77,34.121,304.834,64.402
			c74.839,18.742,118.511,30.391,275.42,73.379c108.843,29.887,159.536,43.383,209.653,56.066
			c219.546,55.391,453.823,99.668,710.786,134.348c104.941,14.062,176.738,18.578,299.453,18.578
			c81.68,0,135.117-1.484,265.264-7.348c150.352-6.738,184.551-8,262.314-9.371c85.693-1.66,121.641-0.199,171.562,6.949
			c122.715,17.574,231.074,67.496,335.322,154.648c26.27,21.973,48.271,42.289,77.861,71.898
			c32.344,32.438,53.936,55.609,111.289,119.309c107.764,119.766,150.947,163.93,209.17,214.141
			c89.688,77.078,200.186,143.523,317.539,190.809C7762.636,48333.273,7940.175,48364.336,8109.188,48357.773z M8044.706,47475.062
			c178.516-86.176,277.373-131.711,382.5-176.055c254.805-107.473,444.453-163.953,600.381-178.715
			c19.336-1.762,80.898-2.832,96.729-1.566c6.143,0.496,11.338,0.805,11.416,0.805c0.312-0.199-150.938-120.18-151.807-120.469
			c-0.4-0.215-13.779,25.207-29.609,56.465c-19.639,38.781-29.6,57.551-31.562,59.121c-2.051,1.742-3.906,2.328-7.412,2.328
			c-4.512,0-6.963-1.453-64.199-38.602l-59.404-38.672l-3.906,7.625c-2.051,4.191-15.625,32.051-30.107,61.828
			c-15.908,32.656-27.549,55.414-29.209,57.156c-2.441,2.551-3.516,2.945-8.018,2.945c-4.775-0.094-8.975-2.164-67.012-32.637
			c-33.984-17.895-62.236-32.152-62.637-31.656c-0.391,0.398-11.621,30.676-24.805,67.207
			c-26.875,74.172-25.791,71.812-34.58,71.812c-4.111,0-10.547-3.113-66.641-32.633c-34.082-17.875-62.129-32.414-62.344-32.332
			c-0.078,0.094-9.463,29.609-20.703,65.555c-11.23,35.949-21.084,66.73-21.895,68.387c-1.455,3.332-6.631,6.254-10.83,6.254
			c-1.377,0-30.283-11.73-64.297-25.98c-51.367-21.59-62.031-25.793-63.496-24.918c-4.99,3.141-19.248,15.145-19.639,16.523
			c-0.283,0.867-7.129,29.102-15.234,62.715c-9.199,38.387-15.352,61.953-16.426,63.523c-1.084,1.355-3.506,3.008-5.664,3.684
			c-3.506,1.199-6.338,0.699-46.895-8.672l-43.184-10.074l-16.328,15.637c-21.494,20.508-101.104,103.562-101.104,105.418
			C7956.786,47517.461,7964.784,47513.648,8044.706,47475.062z M8152.089,47384.984c4.297-16.523,17.686-73.875,17.393-74.27
			c-0.498-0.48-18.086,14.363-38.301,32.434c-24.238,21.609-35.469,32.246-34.395,32.664c1.182,0.363,52.275,12.484,53.623,12.68
			C8150.829,47388.605,8151.61,47386.926,8152.089,47384.984z M8345.155,47278.969c1.846-6.055,11.025-35.488,20.42-65.262
			c9.355-29.801,16.982-54.328,16.895-54.414c-0.312-0.305-39.678,23.633-53.936,32.809c-31.367,20.145-83.037,56.68-81.875,57.836
			c0.781,0.805,93.105,39.871,94.287,39.957C8341.337,47289.895,8343.183,47284.922,8345.155,47278.969z M8548.759,47147.262
			c12.988-35.754,24.131-66.031,24.805-67.32c1.66-3.309,6.338-5.953,10.469-5.953c2.52,0,18.848,8.117,66.924,33.203
			c34.873,18.293,63.691,32.941,64.082,32.461c0.283-0.418,14.375-29.035,31.27-63.613c33.301-68.488,32.129-66.531,40.547-66.531
			c3.506,0,9.873,3.902,63.311,38.59c32.627,21.211,59.678,38.582,59.99,38.582c0.391,0,12.988-24.332,27.949-53.91l27.354-53.93
			l3.125-21.602c1.758-11.824,3.027-21.59,2.91-21.695c-0.195-0.195-4.492,1.656-9.658,4.121
			c-25.117,11.703-64.482,25.68-114.512,40.434c-199.482,59.211-263.486,80.898-342.93,116.367
			c-30.586,13.672-104.053,50.883-104.053,52.758c0,0.281,27.842,15.039,61.846,32.918c40.439,21.211,61.934,31.957,62.334,31.262
			C8524.911,47212.727,8535.761,47183.031,8548.759,47147.262z M7447.851,46868.812c44.17-4.492,77.48-22.367,93.418-50.117
			l3.027-5.473l-6.543-10.066c-14.189-21.672-47.197-66.23-80.332-108.238c-10.332-13.188-27.842-35.754-38.779-50.312
			c-61.758-81.379-109.521-138.059-196.094-232.539c-54.609-59.707-99.355-106.098-166.67-172.828l-55.967-55.609l-3.223,3.812
			c-7.041,8.109-22.979,29.801-30.889,41.926c-21.689,33.305-40.947,72-58.428,117.543c-12.49,32.41-30.859,89.594-34.971,108.629
			c-4.512,21.121-11.719,68.188-18.086,118.215c-5.957,46.105-14.854,128.684-14.062,129.559
			c0.869,0.785,36.738,16.805,66.25,29.406c184.951,79.328,339.697,124.172,465.049,134.637
			C7402.031,46869.879,7431.64,46870.387,7447.851,46868.812z M7371.943,46512.695c39.961-60.863,90.664-108.344,155.938-146.059
			c20.908-12.012,47.373-24.418,105.029-49.137c86.758-37.234,113.34-49.336,157.783-71.527
			c70.742-35.355,122.91-68.102,167.558-105.117c13.877-11.523,47.471-45.344,57.549-58.047
			c41.504-52.062,62.324-108.859,62.041-169.016c0-7.996-1.367-20.43-1.768-16.523c-0.273,3.137-11.25,17.512-23.154,30.383
			c-7.324,7.918-19.248,21.609-26.475,30.301c-14.072,16.816-16.113,18.379-23.838,18.273c-6.055-0.09-10.938-3.234-13.691-8.809
			c-2.139-4.492-2.139-4.492-0.977-30.957c0.693-14.648,1.875-33.613,2.832-42.207c1.68-16.523,2.275-50.129,0.898-56.594
			l-0.898-3.875l-1.65,2.918c-0.986,1.574-5.371,8.984-9.854,16.504c-10.859,18.379-29.131,46.016-36.953,56.094
			c-8.008,10.246-13.193,13.77-20.596,13.77c-7.051,0-12.803-3.328-14.961-8.496c-1.074-2.559-1.846-9.883-2.637-23.738
			c-1.377-25.703-3.32-40.742-9.57-73.965l-2.637-13.867l-4.6,7.605c-16.611,27.754-39.375,55.988-60.478,75.129
			c-13.887,12.617-24.805,21.316-50.225,39.676c-29.697,21.602-39.258,29.406-53.428,43.469
			c-13.975,13.984-22.949,25.027-36.064,44.07c-16.211,23.75-28.818,36.738-47.383,48.945
			c-23.828,15.82-44.346,22.668-104.053,35.078c-15.83,3.312-35.469,7.629-43.662,9.758
			c-27.949,7.156-118.223,36.172-150.264,48.379c-89.6,34.008-147.432,73.266-188.662,127.988l-5.576,7.324l8.691,9.086
			c63.428,65.859,148.809,159.645,191.689,210.461c7.832,9.262,14.365,16.895,14.561,16.895
			C7362.548,46526.867,7366.875,46520.5,7371.943,46512.695z M6407.734,46431.117c28.047-47.977,56.562-101.125,115.283-215.441
			c92.715-180.348,123.311-232.125,163.545-276.883l8.213-9.07l-2.344-1.875c-4.971-3.898-50.996-34.289-65.84-43.574
			c-55.889-34.855-101.514-58.398-156.338-80.586c-11.797-4.805-27.344-11.145-34.473-13.977
			c-87.158-35.469-208.008-66.336-313.613-80.117c-56.104-7.215-83.066-8.984-176.748-11.531l-10.078-0.285v3.027
			c0,7.219-2.148,35.754-3.994,51.777c-11.426,102.48-49.15,209.27-108.154,306.789c-4.6,7.52-9.971,16.121-12.012,19.141
			l-3.73,5.469l36.367,25.898c160.605,114.516,324.736,222.184,495.908,325.34l48.271,29.102l4.883-8.109
			C6395.517,46451.832,6402.265,46440.492,6407.734,46431.117z M6591.718,45771.156c-1.377-53.543-7.93-110.41-17.002-147.148
			c-24.922-101.504-71.533-192.559-141.289-276.199c-19.346-23.152-35.664-40.723-61.455-66.141
			c-53.438-52.559-103.262-93.508-218.262-179.289c-66.348-49.52-97.5-73.652-128.965-100.027
			c-118.125-99.172-185.43-192.473-218.066-302.473c-33.223-112.188-35.469-171.387-8.604-230.801
			c23.936-53.145,59.893-99.246,112.852-144.883c39.951-34.395,79.229-62.703,181.719-131.094
			c50.898-33.914,60.088-39.285,130.918-76.523c35.547-18.738,65.557-35.047,80.312-43.75l6.641-3.828l-5.273-3.602
			c-14.365-9.883-28.027-29.719-34.297-49.531l-1.758-5.469l-13.271,2.832c-15.439,3.309-20.039,3.203-25.117-0.703
			c-6.26-4.766-8.027-13.184-4.307-20.508c2.334-4.602,2.334-4.406,0.4-4.406c-2.939,0-16.221-6.141-23.457-10.84
			c-16.904-11.023-29.902-28.133-38.301-50.41l-3.701-9.863l-10.273,4.387c-11.133,4.805-16.885,5.574-22.08,2.832
			c-6.543-3.312-9.951-11.145-8.105-18.352c0.889-3.23,2.744-5.781,8.018-10.859c3.701-3.711,6.65-6.738,6.533-6.934
			c-0.186-0.086-3.027-0.781-6.25-1.453c-12.207-2.648-27.637-10.266-40.732-20.234c-9.189-7.031-24.824-23.145-33.418-34.68
			c-4.199-5.586-8.018-10.242-8.496-10.469c-0.977-0.371-60.098,23.457-84.902,34.316
			c-169.131,73.555-294.277,158.066-408.877,276.203c-35.361,36.426-69.756,80-105.234,133.262
			c-58.33,87.637-95.342,168.328-104.912,228.719c-2.168,13.566-2.939,58.82-1.465,80.117c2.529,35.664,7.1,65.156,22.666,146.055
			c8.291,43.184,12.891,63.801,19.922,88.898c4.883,17.5,15.84,51.406,20.908,64.578l2.061,5.383l29.59,21.406
			c68.496,49.52,106.504,78.055,143.33,107.559c126.035,100.82,209.17,195.496,267.217,304.031
			c51.094,95.547,81.387,206.055,88.408,322.137c0.596,9.66,1.27,21.191,1.582,25.684l0.586,8.02h4.092
			c2.246,0,9.18,0.672,15.342,1.465c6.152,0.75,23.945,1.934,39.463,2.441c70.645,2.441,132.676,9.168,203.223,22.059
			c83.828,15.449,178.018,42.227,247.686,70.461c9.951,4.012,24.512,9.871,32.324,12.988
			c30.283,12.039,71.719,31.648,101.025,47.781l10.742,5.871l0.488-16.836
			C6592.197,45804.066,6592.089,45785.133,6591.718,45771.156z M6354.589,44043.199c3.799-0.957,20.312-12.012,31.553-21.289
			c16.895-13.672,34.092-31.934,44.355-47.285c4.199-6.043,10.938-18.27,10.938-19.617c0-1.484-71.816,18.738-98.867,27.723
			c-17.197,5.781-37.217,13.691-41.621,16.418c-3.223,2.156,8.311,25.195,16.992,34.102
			C6328.398,44043.902,6339.843,44047.02,6354.589,44043.199z M6271.347,43955.562c9.375-9.961,31.064-39.844,43.965-60.75
			c12.197-19.531,28.623-51.008,27.344-52.277c-0.479-0.496-33.789,11.145-75.625,26.379c-20.215,7.324-61.738,23.465-72.969,28.23
			l-3.613,1.574l1.953,7.02c1.074,3.926,4.189,11.73,6.846,17.305c4.287,8.703,6.152,11.34,13.369,18.664
			c12.9,12.996,24.131,17.391,45.039,17.48l10.176,0.105L6271.347,43955.562z M6159.97,43854.852
			c4.58-1.25,28.232-41.719,40.039-68.574c6.27-14.277,13.115-33.137,12.412-33.926c-0.967-0.957-130.215,48.164-135.312,51.492
			c-2.832,1.855,19.922,27.473,33.613,37.715c10.352,7.715,22.373,13.098,32.246,14.473
			C6146.279,43856.512,6156.445,43855.73,6159.97,43854.852z M5643.71,43778.258c5.078-1.102,7.324-2.344,15.137-8.594
			c34.004-27.156,61.748-59.629,76.416-89.316c4.385-8.973,7.91-17.793,7.422-18.848c-0.098-0.594-10.156,2.238-22.285,6.164
			c-59.785,19.336-107.08,37.324-130.42,49.617c-11.533,6.055-11.338,5.578-5.371,20.031c5.088,12.402,9.072,18.855,16.982,27.266
			C5613.515,43777.273,5627.197,43781.676,5643.71,43778.258z M5538.974,43682.703l8.496-2.043l9.082-11.336
			c18.857-23.566,36.553-48.77,51.689-73.965c11.426-18.75,30.195-56.477,28.828-57.754c-0.293-0.285-13.096,4.012-28.535,9.395
			c-68.574,24.129-127.1,46.016-150.068,56.375l-5.566,2.422l1.465,6.445c4.199,18.859,12.988,39.004,22.275,50.938
			C5492.373,43683.18,5511.132,43689.137,5538.974,43682.703z M5426.318,43554.918c6.943-8.113,30-48.77,39.961-70.352
			c8.506-18.379,20.518-50.332,19.346-51.492c-0.762-0.781-109.912,41.621-159.141,61.934c-2.07,0.789-3.73,1.855-3.73,2.246
			s2.646,4.598,5.781,9.395c16.895,25.203,37.9,42.207,60.176,48.633c9.092,2.754,14.863,3.34,25.41,2.949
			C5423.486,43557.73,5423.964,43557.633,5426.318,43554.918z"/>
		<path d="M8288.964,48032.738c-8.799-0.98-27.939-5.492-37.227-8.605c-101.328-35.078-148.223-151.836-99.453-247.668
			c17.588-34.402,44.648-61.059,79.521-78.262c57.158-28.031,123.701-23.262,177.92,12.906
			c13.291,8.895,34.961,30.191,44.639,43.863c12.598,17.875,24.326,45.039,28.447,65.941c9.17,46.805,0.283,94.176-24.834,132.387
			c-28.506,43.383-72.48,71.418-123.096,78.656C8325.39,48033.223,8298.036,48033.703,8288.964,48032.738z M8334.208,48007.035
			c76.006-12.988,130.42-79.52,127.393-155.84c-1.172-29.301-9.57-54.719-26.182-79.504c-7.236-10.859-21.689-26.289-32.725-34.883
			c-39.473-30.891-91.748-40.066-139.619-24.719c-12.402,3.988-32.725,14.348-42.803,21.867
			c-24.414,18.176-44.16,44.465-53.926,71.828c-22.949,64.375-0.498,135.113,55.586,175.266
			c18.975,13.582,41.621,22.871,64.688,26.383C8299.911,48009.484,8320.897,48009.391,8334.208,48007.035z"/>
		<path d="M8335.38,47964.641c-20.029-5.672-35.576-17.789-44.355-34.797c-5.576-10.633-7.92-20.406-7.92-32.719
			c0-19.449,6.455-35.355,20.039-48.852c13.477-13.586,29.404-20.035,48.857-20.035c29.678,0,54.492,17.195,65.244,45.152
			c3.027,7.91,3.135,8.5,3.135,23.734c0,15.238-0.107,15.828-3.135,23.738c-7.607,19.727-21.973,34.094-41.709,41.531
			c-7.236,2.723-9.199,3.031-21.602,3.332C8344.257,47965.902,8338.788,47965.621,8335.38,47964.641z M8369.286,47942.648
			c12.1-4.695,23.535-16.113,28.223-28.215c3.232-8.418,3.711-22.387,0.986-31.285c-5-16.496-19.453-29.883-36.25-33.504
			c-6.65-1.461-19.648-0.676-25.908,1.551c-14.844,5.188-27.246,18.68-31.338,33.918c-1.582,6.039-1.777,16.98-0.312,23.148
			c3.623,15.742,16.211,29.414,32.158,35.078C8345.321,47946.281,8360.78,47945.977,8369.286,47942.648z"/>
		<path d="M9139.159,47385.578c-10.83-2.164-22.676-10.773-27.832-20.234c-9.102-16.613-6.357-42.031,6.729-63.805
			c5.469-9.094,18.271-23.156,27.051-29.801c7.627-5.668,18.662-11.227,28.057-14.168c10.068-3.121,26.289-3.23,34.375-0.176
			c11.338,4.184,20.146,12.598,24.336,23.43c3.33,8.508,3.73,24.637,0.977,35.469
			C9222.196,47358.59,9175.78,47392.789,9139.159,47385.578z M9157.733,47365.039c20.205-4.297,41.895-22.848,51.572-44.164
			c8.506-18.945,5.957-36.34-6.367-42.574c-4.102-2.164-6.035-2.555-12.676-2.465c-26.074,0.391-56.191,27.664-62.637,56.875
			C9122.548,47355.559,9135.653,47369.641,9157.733,47365.039z"/>
	</g>
</g>
</svg>
