<?xml version="1.0" encoding="utf-8"?>
<!-- Generator: Adobe Illustrator 16.0.4, SVG Export Plug-In . SVG Version: 6.00 Build 0)  -->
<!DOCTYPE svg PUBLIC "-//W3C//DTD SVG 1.1//EN" "http://www.w3.org/Graphics/SVG/1.1/DTD/svg11.dtd">
<svg version="1.1" xmlns="http://www.w3.org/2000/svg" xmlns:xlink="http://www.w3.org/1999/xlink" x="0px" y="0px" width="2048px"
	 height="1336px" viewBox="0 0 2048 1336" enable-background="new 0 0 2048 1336" xml:space="preserve">
<g id="Layer_2" display="none">
	
		<image display="inline" overflow="visible" width="2048" height="1536" xlink:href="../../../../../../Dropbox/Camera Uploads/2014-11-07 13.10.21.png"  transform="matrix(1 0 0 1 0 -98)">
	</image>
</g>
<g id="Practice_area">
	<text transform="matrix(1 0 0 1 52.3223 94.7095)" font-family="'Helvetica'" font-size="50">The practice area</text>
	<text transform="matrix(4.489659e-11 -1 1 4.489659e-11 872.3228 1198)" font-family="'Helvetica'" font-size="50">Select your pen size here</text>
	<text transform="matrix(4.489659e-11 -1 1 4.489659e-11 1350.3223 1198)" font-family="'Helvetica'" font-size="50">Choose your eraser size here</text>
	<text transform="matrix(4.489659e-11 -1 1 4.489659e-11 1912.3223 1198)"><tspan x="0" y="0" font-family="'Helvetica'" font-size="50">Move forward a canvas </tspan><tspan x="0" y="60" font-family="'Helvetica'" font-size="50">(access practice area)</tspan></text>
	<text transform="matrix(4.489659e-11 -1 1 4.489659e-11 1740.3223 1198)" font-family="'Helvetica'" font-size="50">Move back a canvas</text>
	<text transform="matrix(1 0 0 1 55.5488 178.5811)"><tspan x="0" y="0" font-family="'Jura-Regular'" font-size="41">Welcome to the practice area, you have five minutes to make yourselves familiar with the drawing tool on the</tspan><tspan x="0" y="49.2" font-family="'Jura-Regular'" font-size="41">next screen before the test begins. Nothing you draw in the practice area will be assessed, </tspan></text>
	<g>
		<g>
			<line fill="none" stroke="#000000" stroke-width="6" stroke-miterlimit="10" x1="857" y1="1206" x2="857" y2="1298.789"/>
			<g>
				<path d="M857,1335c-6.322-17.039-17.109-38.18-28.535-51.284L857,1294.037l28.529-10.321
					C874.104,1296.82,863.316,1317.961,857,1335z"/>
			</g>
		</g>
	</g>
	<g>
		<g>
			<line fill="none" stroke="#000000" stroke-width="6" stroke-miterlimit="10" x1="1335" y1="1206" x2="1335" y2="1298.789"/>
			<g>
				<path d="M1335,1335c-6.322-17.039-17.109-38.18-28.535-51.284l28.535,10.321l28.529-10.321
					C1352.104,1296.82,1341.316,1317.961,1335,1335z"/>
			</g>
		</g>
	</g>
	<g>
		<g>
			<line fill="none" stroke="#000000" stroke-width="6" stroke-miterlimit="10" x1="1725" y1="1206" x2="1725" y2="1298.789"/>
			<g>
				<path d="M1725,1335c-6.322-17.039-17.109-38.18-28.535-51.284l28.535,10.321l28.529-10.321
					C1742.104,1296.82,1731.316,1317.961,1725,1335z"/>
			</g>
		</g>
	</g>
	<g>
		<g>
			<line fill="none" stroke="#000000" stroke-width="6" stroke-miterlimit="10" x1="1896" y1="1207" x2="1896" y2="1299.789"/>
			<g>
				<path d="M1896,1336c-6.322-17.039-17.109-38.18-28.535-51.284l28.535,10.321l28.529-10.321
					C1913.104,1297.82,1902.316,1318.961,1896,1336z"/>
			</g>
		</g>
	</g>
</g>
</svg>
